<svg width="80" height="80" viewBox="0 0 80 80" fill="none" xmlns="http://www.w3.org/2000/svg">
<g filter="url(#filter0_d_110_74)">
<rect x="16" y="8" width="48" height="48" rx="24" fill="#3C496A"/>
</g>
<path d="M33.2486 22.3769L51.3086 31.0143C51.4911 31.1014 51.6452 31.2385 51.7532 31.4096C51.8611 31.5807 51.9183 31.7789 51.9183 31.9811C51.9183 32.1834 51.8611 32.3816 51.7532 32.5527C51.6452 32.7238 51.4911 32.8608 51.3086 32.948L33.2486 41.5854C33.0634 41.6741 32.8567 41.7077 32.653 41.6823C32.4493 41.6569 32.2572 41.5735 32.0995 41.442C31.9419 41.3105 31.8253 41.1365 31.7637 40.9407C31.7021 40.7449 31.698 40.5355 31.752 40.3374L33.5589 33.7134C33.581 33.6322 33.6265 33.5594 33.6898 33.5039C33.753 33.4484 33.8312 33.4128 33.9146 33.4014L42.666 32.2126C42.7026 32.2074 42.7372 32.1928 42.7665 32.1703C42.7958 32.1477 42.8187 32.118 42.8331 32.084L42.8486 32.0309C42.8553 31.983 42.8457 31.9343 42.8213 31.8926C42.7969 31.8509 42.759 31.8186 42.714 31.8011L42.6669 31.7883L33.924 30.5994C33.8408 30.5879 33.7628 30.5522 33.6997 30.4967C33.6366 30.4413 33.5912 30.3685 33.5691 30.2874L31.752 23.6257C31.6978 23.4276 31.7017 23.2181 31.7632 23.0221C31.8247 22.8261 31.9413 22.652 32.099 22.5204C32.2567 22.3888 32.4489 22.3053 32.6527 22.2799C32.8565 22.2544 33.0634 22.2881 33.2486 22.3769V22.3769Z" fill="#E5E5E5"/>
<defs>
<filter id="filter0_d_110_74" x="0" y="0" width="80" height="80" filterUnits="userSpaceOnUse" color-interpolation-filters="sRGB">
<feFlood flood-opacity="0" result="BackgroundImageFix"/>
<feColorMatrix in="SourceAlpha" type="matrix" values="0 0 0 0 0 0 0 0 0 0 0 0 0 0 0 0 0 0 127 0" result="hardAlpha"/>
<feOffset dy="8"/>
<feGaussianBlur stdDeviation="8"/>
<feComposite in2="hardAlpha" operator="out"/>
<feColorMatrix type="matrix" values="0 0 0 0 0.0874132 0 0 0 0 0.124104 0 0 0 0 0.220833 0 0 0 0.3 0"/>
<feBlend mode="normal" in2="BackgroundImageFix" result="effect1_dropShadow_110_74"/>
<feBlend mode="normal" in="SourceGraphic" in2="effect1_dropShadow_110_74" result="shape"/>
</filter>
</defs>
</svg>
